<svg xmlns="http://www.w3.org/2000/svg" width="310" height="85" fill="none"><path fill="#B1D0E6" d="M86 16.718a8 8 0 1 1 16 0v67.287H86V16.718Z"/><path fill="#6B7280" d="M94 34.945a8 8 0 1 1 16 0v49.06H94v-49.06Z"/><path fill="#B1D0E6" d="M126 8a8 8 0 0 1 16 0v76.005h-16V8Z"/><path fill="#6B7280" d="M134 28.605a8 8 0 0 1 16 0v55.4h-16v-55.4Z"/><path fill="#B1D0E6" d="M166 8a8 8 0 0 1 16 0v76.005h-16V8Z"/><path fill="#6B7280" d="M174 16.717a8 8 0 0 1 16 0v67.287h-16V16.717Z"/><path fill="#B1D0E6" d="M206 8a8 8 0 0 1 16 0v76.005h-16V8Z"/><path fill="#6B7280" d="M214 16.717a8 8 0 0 1 16 0v67.287h-16V16.717Z"/><path fill="#B1D0E6" d="M246 8a8 8 0 0 1 16 0v76.005h-16V8Z"/><path fill="#6B7280" d="M254 16.717a8 8 0 0 1 16 0v67.287h-16V16.717Z"/><path fill="#B1D0E6" d="M286 8a8 8 0 0 1 16 0v76.005h-16V8Z"/><path fill="#6B7280" d="M294 16.717a8 8 0 0 1 16 0v67.287h-16V16.717Z"/><rect width="10" height="10" y="35" fill="#6B7280" rx="2"/><path fill="#000" d="m19.802 41.251 1.85-.303c0-.355-.112-.643-.337-.864-.224-.221-.512-.332-.864-.332a1.53 1.53 0 0 0-.718.176c-.221.114-.382.23-.483.351l-.151.171-.45-.449a2.53 2.53 0 0 1 .078-.098 2.62 2.62 0 0 1 .225-.215c.117-.104.24-.197.366-.278a2 2 0 0 1 .498-.215c.209-.065.42-.097.635-.097.547 0 1 .177 1.358.532.36.355.542.794.542 1.318V44h-.699v-.65c-.013.02-.034.048-.063.084a2.036 2.036 0 0 1-.186.18 2.164 2.164 0 0 1-.307.23c-.111.065-.258.123-.44.175a1.981 1.981 0 0 1-.556.079c-.479 0-.883-.142-1.211-.425-.326-.283-.489-.607-.489-.972 0-.4.12-.723.362-.967.24-.247.587-.408 1.04-.483Zm.298 2.197c.452 0 .823-.148 1.113-.444.293-.296.44-.68.44-1.152v-.303l-1.651.303c-.599.114-.9.397-.903.85 0 .214.087.393.263.536.18.14.425.21.738.21Zm4.204-.078a2.457 2.457 0 0 1-.708-1.772c0-.694.236-1.283.708-1.768.475-.488 1.038-.732 1.69-.732l.6.053a1.103 1.103 0 0 1-.147-.6c0-.453.184-.84.552-1.162.371-.326.82-.489 1.348-.489.501 0 .918.165 1.25.494.332.325.498.727.498 1.206v.6h1.05v.65h-1.05V42.7c0 .502.216.75.65.747.107 0 .214-.013.321-.039.108-.026.19-.049.25-.068l.078-.04v.65c-.199.101-.425.15-.68.147-.413 0-.736-.12-.97-.362-.232-.244-.348-.589-.348-1.035V39.85h-.903v-.65h.904v-.6c0-.3-.101-.549-.303-.748a1.005 1.005 0 0 0-.747-.302c-.375 0-.67.102-.884.307-.212.202-.318.466-.318.791 0 .222.067.45.2.684.134.231.268.407.401.527l.2.19-.503.499a2.93 2.93 0 0 0-.058-.083 2.374 2.374 0 0 0-.176-.196 1.57 1.57 0 0 0-.693-.434 1.639 1.639 0 0 0-.523-.083c-.459 0-.858.179-1.196.537-.335.355-.503.793-.503 1.313 0 .518.168.956.503 1.314.338.355.737.532 1.196.532.28 0 .545-.066.796-.2.25-.133.433-.267.547-.4l.161-.196.498.45c-.02.026-.05.063-.093.112a3.288 3.288 0 0 1-.664.537 2.867 2.867 0 0 1-.556.24 2.254 2.254 0 0 1-.689.107c-.654 0-1.217-.243-1.69-.728ZM32.6 44v-4.8h.698V44H32.6Zm.024-6.08a.447.447 0 0 1-.127-.321.439.439 0 0 1 .45-.45c.126 0 .232.044.317.132.088.085.131.19.131.318a.438.438 0 0 1-.131.322.431.431 0 0 1-.318.127.447.447 0 0 1-.322-.127ZM36.901 44h-.698l-1.953-4.8h.752l1.553 3.848 1.547-3.848h.753L36.9 44Zm7.154-2.139-3.902-.01c.026.434.204.808.532 1.124a1.64 1.64 0 0 0 1.167.473c.3 0 .578-.066.836-.2.257-.133.439-.267.546-.4l.171-.196.45.45a5.01 5.01 0 0 1-.088.112 2.454 2.454 0 0 1-.245.24c-.123.11-.258.21-.405.297a2.84 2.84 0 0 1-.561.24 2.333 2.333 0 0 1-.703.107c-.655 0-1.218-.243-1.69-.728a2.457 2.457 0 0 1-.708-1.772c0-.694.233-1.283.698-1.768.47-.488 1.02-.732 1.65-.732.655 0 1.202.227 1.641.683.44.453.66 1.026.66 1.719l-.05.361Zm-1.177-1.684a1.498 1.498 0 0 0-1.074-.425c-.42 0-.786.148-1.099.444a1.744 1.744 0 0 0-.552 1.055h3.252a1.71 1.71 0 0 0-.527-1.074Z"/><rect width="10" height="10" y="55" fill="#B1D0E6" rx="2"/><path fill="#000" d="M18.752 64v-4.8h.698V64h-.698Zm.024-6.08a.447.447 0 0 1-.127-.321.439.439 0 0 1 .45-.45c.127 0 .232.044.317.132.088.085.132.19.132.318a.438.438 0 0 1-.132.322.43.43 0 0 1-.317.127.447.447 0 0 1-.323-.127Zm2.979 1.28v.698c.013-.02.032-.047.059-.083.026-.035.087-.1.185-.195.098-.094.2-.176.308-.244a1.77 1.77 0 0 1 .434-.19c.183-.059.37-.088.562-.088.58 0 1.05.187 1.41.561.362.374.543.87.543 1.49V64h-.703v-2.852c0-.42-.122-.756-.367-1.01-.24-.258-.551-.386-.932-.386-.427 0-.783.15-1.07.45-.286.299-.43.681-.43 1.147V64h-.697v-4.8h.698Zm6.152 2.051 1.85-.303c0-.355-.112-.643-.336-.864-.225-.221-.513-.332-.864-.332a1.53 1.53 0 0 0-.718.176c-.221.114-.383.23-.483.351l-.152.171-.45-.449a2.53 2.53 0 0 1 .079-.098 2.62 2.62 0 0 1 .225-.215 2.93 2.93 0 0 1 .366-.278c.127-.081.293-.153.498-.215.208-.065.42-.097.635-.097.547 0 .999.177 1.357.532.361.355.542.794.542 1.318V64h-.698v-.65c-.013.02-.034.048-.064.084a2.03 2.03 0 0 1-.185.18 2.17 2.17 0 0 1-.308.23c-.11.065-.257.123-.44.175a1.982 1.982 0 0 1-.556.079c-.478 0-.882-.142-1.21-.425-.326-.283-.49-.607-.49-.972 0-.4.121-.723.362-.967.241-.247.588-.408 1.04-.483Zm.298 2.197c.453 0 .824-.148 1.113-.444.293-.296.44-.68.44-1.152v-.303l-1.65.303c-.6.114-.9.397-.904.85 0 .214.088.393.264.536.179.14.425.21.737.21Zm4.204-.078a2.457 2.457 0 0 1-.708-1.772c0-.694.236-1.283.708-1.768.475-.488 1.039-.732 1.69-.732l.6.053c-.1-.166-.15-.366-.146-.6 0-.453.184-.84.552-1.162.37-.326.82-.489 1.347-.489.502 0 .918.165 1.25.494.332.325.498.727.498 1.206v.6h1.05v.65H38.2V62.7c0 .502.217.75.65.747.107 0 .215-.013.322-.039.107-.026.19-.049.249-.068l.078-.04v.65c-.199.101-.425.15-.679.147-.413 0-.737-.12-.971-.362-.231-.244-.347-.589-.347-1.035V59.85h-.903v-.65h.903v-.6c0-.3-.101-.549-.303-.748a1.005 1.005 0 0 0-.747-.302c-.374 0-.669.102-.884.307-.211.202-.317.466-.317.791 0 .222.067.45.2.684.134.231.267.407.4.527l.2.19-.502.499a2.565 2.565 0 0 0-.059-.083 2.347 2.347 0 0 0-.175-.196 1.574 1.574 0 0 0-.694-.434 1.64 1.64 0 0 0-.522-.083c-.46 0-.858.179-1.197.537-.335.355-.503.793-.503 1.313 0 .518.168.956.503 1.314.339.355.738.532 1.197.532.28 0 .545-.066.796-.2.25-.133.432-.267.546-.4l.161-.196.499.45c-.02.026-.05.063-.093.112a3.288 3.288 0 0 1-.664.537 2.87 2.87 0 0 1-.557.24 2.254 2.254 0 0 1-.688.107c-.655 0-1.218-.243-1.69-.728Zm8.296.63v-4.8h.698V64h-.698Zm.025-6.08a.447.447 0 0 1-.127-.321.439.439 0 0 1 .45-.45c.126 0 .232.044.316.132.088.085.132.19.132.318a.438.438 0 0 1-.132.322.43.43 0 0 1-.317.127.447.447 0 0 1-.322-.127ZM45.007 64h-.698l-1.953-4.8h.751l1.553 3.848 1.548-3.848h.752L45.007 64Zm7.153-2.139-3.901-.01c.026.434.203.808.532 1.124.332.315.721.473 1.167.473.3 0 .578-.066.835-.2.257-.133.44-.267.547-.4l.17-.196.45.45a5.69 5.69 0 0 1-.088.112 2.448 2.448 0 0 1-.244.24c-.124.11-.259.21-.405.297a2.84 2.84 0 0 1-.562.24 2.331 2.331 0 0 1-.703.107c-.654 0-1.217-.243-1.69-.728a2.457 2.457 0 0 1-.708-1.772c0-.694.233-1.283.699-1.768.468-.488 1.019-.732 1.65-.732.654 0 1.201.227 1.64.683.44.453.66 1.026.66 1.719l-.049.361Zm-1.177-1.684a1.498 1.498 0 0 0-1.074-.425c-.42 0-.786.148-1.099.444a1.743 1.743 0 0 0-.551 1.055h3.252a1.71 1.71 0 0 0-.528-1.074Z"/></svg>