<svg xmlns="http://www.w3.org/2000/svg" width="343" height="106" fill="none"><g clip-path="url(#a)"><path fill="#8E8E93" d="m14.363 16.023-3.923 5.174-3.918-5.174V24H5.47v-9.803h.909l4.06 5.326 4.061-5.326h.91V24h-1.047v-7.977Zm8.23 6.46c.484-.502.725-1.115.725-1.84 0-.729-.241-1.342-.724-1.838-.479-.502-1.055-.752-1.73-.752-.67 0-1.246.25-1.73.752-.478.496-.717 1.107-.717 1.832 0 .72.24 1.333.718 1.839.483.5 1.06.752 1.73.752.674 0 1.25-.249 1.729-.746Zm-4.155.642c-.666-.674-.998-1.502-.998-2.481 0-.985.332-1.814.997-2.489a3.292 3.292 0 0 1 2.434-1.018c.953 0 1.762.34 2.427 1.018.665.675.998 1.504.998 2.489 0 .98-.333 1.807-.998 2.481a3.28 3.28 0 0 1-2.427 1.012 3.303 3.303 0 0 1-2.433-1.012Zm8.592-5.845v.978l.082-.116c.037-.05.123-.142.26-.274.137-.132.28-.246.43-.342.156-.1.358-.189.61-.266.254-.082.516-.123.785-.123.812 0 1.47.262 1.976.786s.759 1.219.759 2.085V24h-.985v-3.992c0-.588-.17-1.06-.512-1.415-.338-.36-.773-.54-1.306-.54-.597 0-1.096.21-1.497.629-.401.419-.602.954-.602 1.606V24h-.977v-6.72h.977ZM50.78 14.197h7.212v.985H54.91V24h-1.046v-8.818H50.78v-.985ZM63.516 24v-.91a3.533 3.533 0 0 1-.082.117c-.037.046-.123.13-.26.253a3.02 3.02 0 0 1-.43.321c-.156.091-.36.173-.616.246-.25.073-.51.11-.78.11-.783 0-1.435-.271-1.954-.814-.515-.547-.773-1.255-.773-2.126V17.28h.978v3.917c0 .588.182 1.073.547 1.456.364.383.81.575 1.34.575.569 0 1.05-.21 1.442-.63.392-.419.588-.954.588-1.606V17.28h.984V24h-.984Zm9.242-2.994-5.462-.014c.036.606.285 1.13.745 1.572.465.442 1.01.663 1.634.663a2.5 2.5 0 0 0 1.169-.28c.36-.187.615-.373.765-.56l.24-.274.629.63a6.739 6.739 0 0 1-.123.156c-.05.064-.165.176-.342.335a3.721 3.721 0 0 1-.568.417c-.2.119-.462.23-.786.335-.319.1-.647.15-.984.15-.916 0-1.705-.339-2.365-1.018-.661-.683-.992-1.51-.992-2.481 0-.971.326-1.796.978-2.475.656-.683 1.426-1.025 2.31-1.025.916 0 1.682.319 2.297.957.616.633.923 1.435.923 2.406l-.068.506Zm-1.648-2.358a2.098 2.098 0 0 0-1.504-.595c-.587 0-1.1.207-1.538.622a2.441 2.441 0 0 0-.772 1.476h4.553c-.073-.606-.32-1.107-.739-1.503ZM100.871 24l-2.59-8.19L95.688 24h-1.052l-3.22-9.803h1.121l2.59 8.19 2.66-8.19h.984l2.66 8.19 2.59-8.19h1.115L101.917 24h-1.046ZM112 21.006l-5.462-.014c.037.606.285 1.13.745 1.572.465.442 1.01.663 1.634.663.419 0 .809-.093 1.169-.28.36-.187.615-.373.766-.56l.239-.274.629.63-.123.156c-.05.064-.164.176-.342.335a3.712 3.712 0 0 1-.567.417c-.201.119-.463.23-.787.335-.319.1-.647.15-.984.15-.916 0-1.704-.339-2.365-1.018-.661-.683-.991-1.51-.991-2.481 0-.971.325-1.796.977-2.475.656-.683 1.427-1.025 2.311-1.025.916 0 1.681.319 2.297.957.615.633.922 1.435.922 2.406l-.068.506Zm-1.647-2.358a2.098 2.098 0 0 0-1.504-.595c-.588 0-1.101.207-1.538.622a2.442 2.442 0 0 0-.773 1.476h4.553c-.073-.606-.319-1.107-.738-1.503Zm4.443-1.368v.978c.018-.027.045-.066.082-.116.036-.05.123-.142.26-.274.136-.132.28-.246.43-.342.155-.1.358-.189.609-.266a2.55 2.55 0 0 1 .786-.123c.811 0 1.47.262 1.975.786.506.524.759 1.219.759 2.085V24h-.984v-3.992c0-.588-.171-1.06-.513-1.415-.337-.36-.772-.54-1.305-.54a1.99 1.99 0 0 0-1.498.629c-.401.419-.601.954-.601 1.606V24h-.978v-6.72h.978Z"/><path fill="#9CA3AF" d="M159.28 14.197h7.698v1.894h-2.796V24h-2.099v-7.91h-2.803v-1.893Zm10.781 0v3.78a3.5 3.5 0 0 1 .225-.266c.1-.11.319-.255.656-.438.342-.182.7-.273 1.074-.273.783 0 1.422.271 1.914.814.496.542.745 1.273.745 2.194V24h-1.887v-3.78c0-.42-.125-.757-.376-1.012-.246-.26-.565-.39-.957-.39-.428 0-.768.142-1.018.424-.251.278-.376.675-.376 1.19V24h-1.894v-9.803h1.894ZM181.114 24v-.697a3.371 3.371 0 0 1-.232.239c-.1.091-.321.214-.663.37a2.59 2.59 0 0 1-1.067.225c-.784 0-1.424-.262-1.921-.786-.492-.53-.738-1.23-.738-2.106v-4.108h1.887v3.924c0 .382.125.7.376.95.255.25.574.376.957.376.428 0 .768-.14 1.018-.417.256-.278.383-.675.383-1.19v-3.643h1.887V24h-1.887Z"/><path fill="#8E8E93" d="M223.47 14.197h6.651v.985h-5.599v3.356H229v.985h-4.478V24h-1.052v-9.803Zm11.409 2.94v.984h-.424c-.579 0-1.073.2-1.483.602-.41.4-.616.922-.616 1.565V24h-.977v-6.72h.977v.91c.019-.028.046-.064.082-.11.037-.05.124-.134.26-.253a2.71 2.71 0 0 1 .438-.321c.159-.096.369-.18.629-.253a2.95 2.95 0 0 1 .834-.116h.28ZM236.205 24v-6.72h.978V24h-.978Zm.034-8.51a.628.628 0 0 1-.177-.452.614.614 0 0 1 .628-.629c.178 0 .326.062.445.185a.59.59 0 0 1 .184.444.614.614 0 0 1-.184.451.605.605 0 0 1-.445.178.627.627 0 0 1-.451-.178ZM274.159 21.34c0-.336-.098-.623-.294-.86a1.956 1.956 0 0 0-.765-.554 8.223 8.223 0 0 0-1.033-.356c-.378-.11-.756-.228-1.134-.355a5.678 5.678 0 0 1-1.039-.479 2.153 2.153 0 0 1-.759-.793c-.196-.341-.294-.75-.294-1.223 0-.739.289-1.365.868-1.88.579-.52 1.34-.78 2.283-.78.356 0 .693.046 1.012.137.323.087.592.192.807.315.214.118.405.239.574.362.168.118.289.221.362.308l.116.136-.704.705a.892.892 0 0 0-.082-.103 1.926 1.926 0 0 0-.26-.232 2.827 2.827 0 0 0-.437-.301 2.38 2.38 0 0 0-.609-.24c-.25-.072-.51-.109-.779-.109-.642 0-1.155.164-1.538.492-.378.328-.567.725-.567 1.19 0 .337.098.624.294.861.196.237.451.422.765.554.315.132.661.253 1.039.362.379.105.755.223 1.128.355.379.128.725.285 1.039.472.315.187.57.451.766.793.196.337.294.745.294 1.224 0 .83-.292 1.504-.875 2.023-.583.515-1.39.773-2.42.773-.419 0-.818-.05-1.196-.15a4.162 4.162 0 0 1-.93-.363 5.809 5.809 0 0 1-.643-.43 2.1 2.1 0 0 1-.389-.37l-.13-.157.642-.71.096.129c.05.055.155.153.315.294.159.137.33.257.512.362.187.1.438.196.752.287.315.087.638.13.971.13.72 0 1.274-.166 1.661-.499.387-.337.581-.777.581-1.32Zm4.279-1.189 2.591-.424c0-.496-.157-.9-.471-1.21-.315-.31-.718-.464-1.21-.464a2.14 2.14 0 0 0-1.005.246c-.31.16-.536.323-.677.492l-.212.24-.629-.63a3.87 3.87 0 0 1 .11-.136c.05-.06.155-.16.314-.301a4.09 4.09 0 0 1 .513-.39c.177-.114.41-.214.697-.3.292-.092.588-.137.889-.137.765 0 1.399.248 1.9.745.506.497.759 1.112.759 1.845V24h-.978v-.91a1.56 1.56 0 0 1-.089.117c-.036.046-.123.13-.259.253a3.013 3.013 0 0 1-.431.321c-.155.091-.36.173-.615.246-.251.073-.511.11-.78.11-.669 0-1.235-.198-1.695-.595-.456-.397-.683-.85-.683-1.36 0-.56.168-1.012.505-1.354.338-.346.823-.572 1.456-.677Zm.417 3.076c.634 0 1.153-.207 1.559-.622.41-.414.615-.952.615-1.613v-.424l-2.31.424c-.839.16-1.26.556-1.265 1.19 0 .3.123.551.369.752.251.196.595.293 1.032.293Zm6.016-6.644v-1.545h.909v2.242h1.47v.91h-1.47v3.992c0 .702.303 1.05.909 1.046.151 0 .299-.019.445-.055.15-.037.264-.068.342-.096l.123-.055v.91a2.01 2.01 0 0 1-.951.205c-.578 0-1.032-.169-1.36-.506-.323-.342-.485-.825-.485-1.45V18.19h-1.265v-.909h.773c.373 0 .56-.232.56-.697ZM324.159 21.34c0-.336-.098-.623-.294-.86a1.956 1.956 0 0 0-.765-.554 8.223 8.223 0 0 0-1.033-.356c-.378-.11-.756-.228-1.134-.355a5.678 5.678 0 0 1-1.039-.479 2.153 2.153 0 0 1-.759-.793c-.196-.341-.294-.75-.294-1.223 0-.739.289-1.365.868-1.88.579-.52 1.34-.78 2.283-.78.356 0 .693.046 1.012.137.323.087.592.192.807.315.214.118.405.239.574.362.168.118.289.221.362.308l.116.136-.704.705a.892.892 0 0 0-.082-.103 1.926 1.926 0 0 0-.26-.232 2.827 2.827 0 0 0-.437-.301 2.38 2.38 0 0 0-.609-.24c-.25-.072-.51-.109-.779-.109-.642 0-1.155.164-1.538.492-.378.328-.567.725-.567 1.19 0 .337.098.624.294.861.196.237.451.422.765.554.315.132.661.253 1.039.362.379.105.755.223 1.128.355.379.128.725.285 1.039.472.315.187.57.451.766.793.196.337.294.745.294 1.224 0 .83-.292 1.504-.875 2.023-.583.515-1.39.773-2.42.773-.419 0-.818-.05-1.196-.15a4.162 4.162 0 0 1-.93-.363 5.809 5.809 0 0 1-.643-.43 2.1 2.1 0 0 1-.389-.37l-.13-.157.642-.71.096.129c.05.055.155.153.315.294.159.137.33.257.512.362.187.1.438.196.752.287.315.087.638.13.971.13.72 0 1.274-.166 1.661-.499.387-.337.581-.777.581-1.32Zm4.279-1.189 2.591-.424c0-.496-.157-.9-.471-1.21-.315-.31-.718-.464-1.21-.464a2.14 2.14 0 0 0-1.005.246c-.31.16-.536.323-.677.492l-.212.24-.629-.63a3.87 3.87 0 0 1 .11-.136c.05-.06.155-.16.314-.301a4.09 4.09 0 0 1 .513-.39c.177-.114.41-.214.697-.3.292-.092.588-.137.889-.137.765 0 1.399.248 1.9.745.506.497.759 1.112.759 1.845V24h-.978v-.91a1.56 1.56 0 0 1-.089.117c-.036.046-.123.13-.259.253a3.013 3.013 0 0 1-.431.321c-.155.091-.36.173-.615.246-.251.073-.511.11-.78.11-.669 0-1.235-.198-1.695-.595-.456-.397-.683-.85-.683-1.36 0-.56.168-1.012.505-1.354.338-.346.823-.572 1.456-.677Zm.417 3.076c.634 0 1.153-.207 1.559-.622.41-.414.615-.952.615-1.613v-.424l-2.31.424c-.839.16-1.26.556-1.265 1.19 0 .3.123.551.369.752.251.196.595.293 1.032.293Zm6.016-6.644v-1.545h.909v2.242h1.47v.91h-1.47v3.992c0 .702.303 1.05.909 1.046.151 0 .299-.019.445-.055.15-.037.264-.068.342-.096l.123-.055v.91a2.01 2.01 0 0 1-.951.205c-.578 0-1.032-.169-1.36-.506-.323-.342-.485-.825-.485-1.45V18.19h-1.265v-.909h.773c.373 0 .56-.232.56-.697Z"/><path stroke="#D1D5DB" stroke-dasharray="2 2" stroke-linecap="round" d="M165.5 44.5v7M81.5 44.5v7M254.5 44.5v7M206.5 44.5v7M117.5 44.5v7M290.5 44.5v7M21.5 44.5v7M194.5 44.5v7M105.5 44.5v7M278.5 44.5v7M57.5 44.5v7M230.5 44.5v7M141.5 44.5v7M314.5 44.5v7M9.5 44.5v7M182.5 44.5v7M93.5 44.5v7M266.5 44.5v7M45.5 44.5v7M41.5 44.5v7M218.5 44.5v7M129.5 44.5v7M302.5 44.5v7M206.5 44.5v7M117.5 44.5v7M290.5 44.5v7M69.5 44.5v7M242.5 44.5v7M153.5 44.5v7M326.5 44.5v7M338.5 44.5v7M5.5 44.5v7M178.5 44.5v7M89.5 44.5v7M262.5 44.5v7M214.5 44.5v7M125.5 44.5v7M298.5 44.5v7M29.5 44.5v7M33.5 44.5v7M202.5 44.5v7M113.5 44.5v7M286.5 44.5v7M65.5 44.5v7M238.5 44.5v7M149.5 44.5v7M322.5 44.5v7M17.5 44.5v7M190.5 44.5v7M101.5 44.5v7M274.5 44.5v7M53.5 44.5v7M226.5 44.5v7M137.5 44.5v7M310.5 44.5v7M214.5 44.5v7M125.5 44.5v7M298.5 44.5v7M77.5 44.5v7M250.5 44.5v7M161.5 44.5v7M334.5 44.5v7"/><path stroke="#D1D5DB" stroke-linecap="round" d="M1.5 40.5v17M172.5 36.5v23M85.5 40.5v15M258.5 40.5v15"/><path stroke="#D1D5DB" stroke-dasharray="2 2" stroke-linecap="round" d="M37.5 40.5v15M210.5 40.5v15M121.5 40.5v15M294.5 40.5v15"/><path stroke="#D1D5DB" stroke-linecap="round" d="M25.5 40.5v15M198.5 40.5v15M109.5 40.5v15M282.5 40.5v15M61.5 40.5v15M234.5 40.5v15M145.5 40.5v15M318.5 40.5v15M13.5 40.5v15M186.5 40.5v15M97.5 40.5v15M270.5 40.5v15M49.5 40.5v15M222.5 40.5v15M133.5 40.5v15M306.5 40.5v15M37.5 40.5v15M210.5 40.5v15M121.5 40.5v15M294.5 40.5v15M73.5 40.5v15M246.5 40.5v15M157.5 40.5v15M330.5 40.5v15M342.5 40.5v15"/></g><g clip-path="url(#b)" filter="url(#c)"><rect width="32" height="32" x="155" y="66" fill="#B1D0E6" rx="16"/></g><path fill="#fff" d="M167.331 76.397h2.25V89h-2.698v-9.176h-2.162V78.11a3.989 3.989 0 0 0 1.063-.272c.322-.14.571-.29.747-.448.182-.159.334-.31.457-.457.129-.153.22-.282.273-.387l.07-.15Zm7.207 0h2.25V89h-2.698v-9.176h-2.162V78.11a3.989 3.989 0 0 0 1.063-.272c.322-.14.571-.29.747-.448.182-.159.334-.31.457-.457.129-.153.22-.282.273-.387l.07-.15Z"/><path fill="#1C1C1E" d="M7.604 82.037c.427.387.996.58 1.705.58.709 0 1.274-.193 1.696-.58.428-.393.641-.888.641-1.485 0-.604-.213-1.099-.641-1.486-.422-.392-.987-.588-1.696-.588-.71 0-1.278.196-1.705.588-.422.387-.633.882-.633 1.486 0 .597.21 1.092.633 1.485Zm-.906-3.806c.72-.673 1.591-1.01 2.61-1.01 1.02 0 1.89.337 2.61 1.01.722.668 1.082 1.442 1.082 2.32 0 .346-.059.677-.176.994-.111.31-.246.56-.404.747a4.597 4.597 0 0 1-.466.483 2.576 2.576 0 0 1-.395.3l-.176.087c.058.023.135.056.228.097.1.04.273.152.519.334.246.181.463.38.65.597.194.211.367.51.519.897.158.38.237.788.237 1.222 0 1.054-.404 1.963-1.213 2.724-.808.762-1.813 1.143-3.014 1.143-1.202 0-2.206-.381-3.015-1.143-.809-.761-1.213-1.67-1.213-2.724 0-.434.073-.838.22-1.213.152-.381.334-.683.545-.906.21-.228.419-.424.624-.588.21-.165.395-.276.553-.334l.22-.106a7.053 7.053 0 0 0-.184-.088c-.07-.04-.2-.135-.387-.281a3.379 3.379 0 0 1-.501-.501 2.97 2.97 0 0 1-.554-1.74c0-.88.36-1.653 1.081-2.32Zm4.64 6.258c-.562-.527-1.238-.79-2.03-.79-.79 0-1.47.263-2.038.79-.563.528-.844 1.134-.844 1.82 0 .709.263 1.32.79 1.837.534.515 1.231.773 2.093.773.867 0 1.564-.258 2.091-.773.528-.516.791-1.128.791-1.837 0-.686-.284-1.292-.852-1.82ZM58.22 85.5c-1.212 0-2.22-.395-3.023-1.186-.803-.791-1.204-1.776-1.204-2.954 0-1.177.407-2.162 1.222-2.953.814-.79 1.845-1.186 3.094-1.186 1.248 0 2.279.395 3.093 1.186.82.791 1.23 1.776 1.23 2.953 0 .457-.075.912-.228 1.363-.152.445-.299.782-.44 1.01l-.236.326L57.947 90h-1.345l2.971-4.676c-.351.117-.802.176-1.353.176Zm-2.073-6.223c-.54.528-.81 1.222-.81 2.083 0 .862.27 1.559.81 2.092.544.528 1.265.791 2.162.791.902 0 1.623-.263 2.162-.79.539-.534.808-1.231.808-2.093 0-.861-.27-1.555-.808-2.083-.54-.533-1.26-.8-2.162-.8-.897 0-1.618.267-2.162.8ZM105.419 77.397h.993V90h-1.353V79.919h-2.338v-.809c.41-.011.779-.079 1.107-.202.328-.129.589-.272.782-.43.194-.164.352-.329.475-.493.129-.164.217-.299.264-.404l.07-.184Zm6.39 2.47c-.727.925-1.09 2.205-1.09 3.84 0 1.629.363 2.906 1.09 3.832.726.92 1.599 1.38 2.619 1.38 1.008 0 1.872-.463 2.593-1.389.72-.931 1.081-2.209 1.081-3.832 0-1.634-.364-2.912-1.09-3.832-.727-.926-1.594-1.388-2.602-1.388-1.008 0-1.875.462-2.601 1.388Zm6.152-.862c.996 1.184 1.494 2.748 1.494 4.693 0 1.946-.495 3.513-1.485 4.702-.991 1.184-2.171 1.776-3.542 1.776-1.383 0-2.573-.592-3.569-1.776-.99-1.19-1.485-2.756-1.485-4.702 0-1.945.498-3.51 1.494-4.693.996-1.19 2.177-1.784 3.542-1.784 1.371 0 2.555.594 3.551 1.784ZM225.419 77.397h.993V90h-1.353V79.919h-2.338v-.809c.41-.011.779-.079 1.107-.202.328-.129.589-.272.782-.43.194-.164.352-.329.475-.493.129-.164.217-.299.264-.404l.07-.184ZM237.117 90h-8.103c0-.826.167-1.582.501-2.268.339-.685.758-1.236 1.256-1.652a28.135 28.135 0 0 1 1.618-1.266 42.79 42.79 0 0 1 1.617-1.124 4.508 4.508 0 0 0 1.248-1.222c.34-.487.51-1.005.51-1.556 0-.732-.241-1.321-.721-1.767-.481-.445-1.14-.667-1.978-.667-.421 0-.805.076-1.151.228-.34.147-.603.325-.791.536a4.25 4.25 0 0 0-.457.633c-.117.21-.199.393-.246.545l-.053.22-1.178-.537c.012-.081.039-.187.08-.316.046-.129.164-.357.351-.685.193-.329.419-.619.677-.87.258-.252.633-.484 1.125-.695a4.13 4.13 0 0 1 1.643-.316c1.202 0 2.177.351 2.927 1.054.75.703 1.125 1.582 1.125 2.637 0 .61-.14 1.175-.422 1.696-.275.522-.624.961-1.046 1.319-.416.351-.887.72-1.415 1.107-.527.381-1.028.735-1.503 1.064a7.129 7.129 0 0 0-1.327 1.177 4.262 4.262 0 0 0-.861 1.468h6.574V90ZM275.419 77.397h.993V90h-1.353V79.919h-2.338v-.809c.41-.011.779-.079 1.107-.202.328-.129.589-.272.782-.43.194-.164.352-.329.475-.493.129-.164.217-.299.264-.404l.07-.184Zm9.536 5.94c.059.013.141.039.246.08.111.035.302.132.571.29.27.152.507.334.712.545.205.21.39.516.554.914.17.393.255.835.255 1.327 0 .996-.39 1.86-1.169 2.593-.779.727-1.799 1.09-3.059 1.09a5.984 5.984 0 0 1-1.538-.194 5.574 5.574 0 0 1-1.204-.465 7.508 7.508 0 0 1-.826-.554 3.362 3.362 0 0 1-.518-.475l-.15-.202.905-.896c.024.035.065.09.123.167.059.07.191.193.396.369.205.17.428.325.668.466a4.517 4.517 0 0 0 2.144.527c.914 0 1.638-.231 2.171-.694.534-.463.8-1.04.8-1.732 0-.674-.275-1.248-.826-1.722-.545-.475-1.26-.712-2.145-.712H281.8v-1.257h1.265c.756 0 1.348-.202 1.776-.607.433-.41.65-.958.65-1.643 0-.598-.22-1.093-.659-1.486-.434-.392-1.022-.588-1.767-.588-.345 0-.685.05-1.019.149a2.847 2.847 0 0 0-.817.36 4.67 4.67 0 0 0-.572.431c-.158.14-.275.26-.351.36l-.123.14-.897-.992c.035-.047.085-.109.15-.185.064-.076.213-.21.448-.404.234-.193.486-.363.756-.51.269-.152.624-.29 1.063-.413a4.82 4.82 0 0 1 1.362-.193c1.102 0 2.007.325 2.716.975.709.645 1.064 1.43 1.064 2.356 0 .41-.068.782-.202 1.116a2.44 2.44 0 0 1-.475.8c-.188.199-.372.369-.554.51a2.318 2.318 0 0 1-.466.29l-.193.07ZM325.419 77.397h.993V90h-1.353V79.919h-2.338v-.809c.41-.011.779-.079 1.107-.202.328-.129.589-.272.782-.43.194-.164.352-.329.475-.493.129-.164.217-.299.264-.404l.07-.184Zm11.153 8.64h1.617v1.265h-1.617V90h-1.353v-2.698h-6.39v-1.53l6.038-8.376h1.705v8.64Zm-1.353 0v-7.111l-5.124 7.11h5.124Z"/><defs><clipPath id="a"><path fill="#fff" d="M0 0h343v58H0z"/></clipPath><clipPath id="b"><path fill="#fff" d="M147 58h48v48h-48z"/></clipPath><filter id="c" width="48" height="48" x="147" y="60" color-interpolation-filters="sRGB" filterUnits="userSpaceOnUse"><feFlood flood-opacity="0" result="BackgroundImageFix"/><feColorMatrix in="SourceAlpha" result="hardAlpha" values="0 0 0 0 0 0 0 0 0 0 0 0 0 0 0 0 0 0 127 0"/><feOffset dy="2"/><feGaussianBlur stdDeviation="4"/><feColorMatrix values="0 0 0 0 0 0 0 0 0 0 0 0 0 0 0 0 0 0 0.12 0"/><feBlend in2="BackgroundImageFix" result="effect1_dropShadow_6_58"/><feBlend in="SourceGraphic" in2="effect1_dropShadow_6_58" result="shape"/></filter></defs></svg>