<svg xmlns="http://www.w3.org/2000/svg" width="310" height="75" fill="none"><path stroke="#D2D2D2" stroke-linecap="round" d="M.5 23.5h309M28.501 20.5v3M64.501 20.5v3M101.501 20.5v3M138.501 20.5v3M175.501 20.5v3M211.501 20.5v3M247.501 20.5v3M284.501 20.5v3"/><rect width="36" height="16" x="28" fill="#B1D0E6" rx="4"/><rect width="1" height="65" x="45.5" y="27" fill="#B1D0E6" rx=".5"/><path fill="#B1D0E6" d="M45.134 27.5a1 1 0 0 0 1.732 0l3.897-6.75a1 1 0 0 0-.866-1.5h-7.794a1 1 0 0 0-.866 1.5l3.897 6.75Z"/><path fill="#49494B" d="M2.212 4.998h.552V12h-.752V6.4h-1.3v-.45c.229-.006.434-.044.616-.112.182-.072.327-.151.435-.24.107-.09.195-.182.263-.273.072-.091.12-.166.147-.224l.039-.103ZM8.71 12H4.209c0-.459.093-.879.278-1.26.19-.38.422-.687.699-.918.276-.234.576-.468.898-.703.322-.234.622-.443.898-.625.277-.182.508-.408.694-.679.189-.27.283-.558.283-.864 0-.407-.133-.734-.4-.981-.267-.248-.634-.371-1.099-.371a1.57 1.57 0 0 0-.64.127c-.188.081-.335.18-.44.297-.1.118-.185.235-.253.352-.065.117-.11.218-.137.303l-.03.122-.653-.298a1.14 1.14 0 0 1 .044-.176c.026-.071.09-.198.195-.38.107-.183.233-.344.376-.484s.351-.269.625-.386c.273-.117.578-.176.913-.176.667 0 1.21.196 1.626.586.417.391.625.88.625 1.465 0 .339-.078.653-.234.943-.153.29-.347.533-.581.732-.232.195-.494.4-.787.615-.293.212-.57.409-.835.591-.263.18-.509.397-.737.654a2.366 2.366 0 0 0-.478.816H8.71V12Zm1.28-.04a.51.51 0 0 1-.133-.36c0-.147.044-.266.132-.357a.486.486 0 0 1 .366-.141.47.47 0 0 1 .362.141c.09.091.136.21.136.357a.499.499 0 0 1-.136.36.478.478 0 0 1-.362.138.495.495 0 0 1-.366-.137Zm3.368-5.59c-.403.514-.605 1.226-.605 2.134 0 .905.202 1.614.605 2.129.404.51.889.766 1.456.766.56 0 1.04-.257 1.44-.771.4-.518.6-1.227.6-2.129 0-.908-.201-1.618-.605-2.129-.404-.514-.885-.771-1.445-.771s-1.042.257-1.446.771Zm3.418-.478c.554.657.83 1.526.83 2.607 0 1.08-.275 1.951-.825 2.612-.55.658-1.206.987-1.967.987-.769 0-1.43-.33-1.983-.987-.55-.66-.825-1.531-.825-2.612 0-1.08.277-1.95.83-2.607.553-.661 1.21-.992 1.968-.992.761 0 1.419.33 1.972.992Zm3.38.478c-.404.514-.606 1.226-.606 2.134 0 .905.202 1.614.605 2.129.404.51.889.766 1.455.766.56 0 1.04-.257 1.44-.771.401-.518.601-1.227.601-2.129 0-.908-.201-1.618-.605-2.129-.404-.514-.886-.771-1.445-.771-.56 0-1.042.257-1.446.771Zm3.417-.478c.554.657.83 1.526.83 2.607 0 1.08-.275 1.951-.825 2.612-.55.658-1.206.987-1.968.987-.768 0-1.429-.33-1.982-.987-.55-.66-.825-1.531-.825-2.612 0-1.08.276-1.95.83-2.607.553-.661 1.21-.992 1.968-.992.761 0 1.419.33 1.972.992Z"/><path fill="#fff" d="M37.114 4.998h.552V12h-.752V6.4h-1.299v-.45a1.9 1.9 0 0 0 .615-.112c.183-.072.328-.151.435-.24.108-.09.195-.182.264-.273.071-.091.12-.166.146-.224l.04-.103Zm5.298 3.3a.892.892 0 0 1 .137.045c.062.02.168.073.317.16.15.086.282.186.396.304.114.117.216.286.307.507.095.219.142.464.142.738 0 .553-.216 1.033-.65 1.44-.432.404-.999.606-1.699.606-.3 0-.584-.036-.854-.108a3.08 3.08 0 0 1-.67-.259 4.14 4.14 0 0 1-.458-.307 1.875 1.875 0 0 1-.288-.264l-.083-.112.503-.498c.013.02.035.05.068.093a2.78 2.78 0 0 0 .59.464 2.51 2.51 0 0 0 1.192.292c.508 0 .91-.128 1.206-.385.297-.257.445-.578.445-.962 0-.375-.153-.694-.46-.957-.302-.264-.7-.396-1.19-.396h-.704v-.698h.703c.42 0 .749-.112.987-.337.24-.228.361-.532.361-.913a1.06 1.06 0 0 0-.366-.825c-.241-.218-.568-.327-.982-.327-.192 0-.38.027-.566.083a1.588 1.588 0 0 0-.454.2 2.61 2.61 0 0 0-.318.24 1.536 1.536 0 0 0-.195.2l-.068.077-.498-.551c.02-.026.047-.06.083-.103.036-.042.119-.117.249-.224.13-.108.27-.202.42-.284.15-.084.346-.16.59-.23.245-.07.497-.107.757-.107.612 0 1.115.181 1.51.542.393.358.59.795.59 1.309 0 .228-.038.435-.112.62a1.35 1.35 0 0 1-.264.444c-.104.111-.207.206-.308.284a1.286 1.286 0 0 1-.258.16l-.108.04Zm2.578 3.663a.51.51 0 0 1-.132-.361c0-.147.044-.266.132-.357a.486.486 0 0 1 .366-.141.47.47 0 0 1 .362.141c.09.091.136.21.136.357a.499.499 0 0 1-.136.36.478.478 0 0 1-.362.138.495.495 0 0 1-.366-.137Zm3.37-5.59c-.404.513-.606 1.225-.606 2.133 0 .905.202 1.614.605 2.129.404.51.889.766 1.456.766.56 0 1.04-.257 1.44-.771.4-.518.6-1.227.6-2.129 0-.908-.201-1.618-.605-2.129-.404-.514-.885-.771-1.445-.771s-1.042.257-1.446.771Zm3.417-.48c.554.658.83 1.527.83 2.608 0 1.08-.275 1.951-.825 2.612-.55.658-1.206.987-1.967.987-.769 0-1.43-.33-1.983-.987-.55-.66-.825-1.531-.825-2.612 0-1.08.276-1.95.83-2.607.553-.661 1.21-.992 1.968-.992.761 0 1.419.33 1.972.992Zm3.38.48c-.404.513-.606 1.225-.606 2.133 0 .905.202 1.614.605 2.129.404.51.889.766 1.455.766.56 0 1.04-.257 1.44-.771.401-.518.601-1.227.601-2.129 0-.908-.202-1.618-.605-2.129-.404-.514-.886-.771-1.445-.771-.56 0-1.042.257-1.446.771Zm3.417-.48c.554.658.83 1.527.83 2.608 0 1.08-.275 1.951-.825 2.612-.55.658-1.206.987-1.968.987-.768 0-1.429-.33-1.982-.987-.55-.66-.825-1.531-.825-2.612 0-1.08.276-1.95.83-2.607.553-.661 1.21-.992 1.968-.992.761 0 1.419.33 1.972.992Z"/><path fill="#49494B" d="M72.86 4.998h.552V12h-.752V6.4h-1.299v-.45a1.9 1.9 0 0 0 .616-.112c.182-.072.327-.151.434-.24a1.71 1.71 0 0 0 .264-.273c.071-.091.12-.166.146-.224l.04-.103Zm6.197 4.8h.898v.703h-.898V12h-.752v-1.499h-3.55v-.85l3.354-4.653h.948v4.8Zm-.752 0v-3.95l-2.847 3.95h2.847Zm2.685 2.163a.51.51 0 0 1-.132-.361c0-.147.044-.266.132-.357a.486.486 0 0 1 .366-.141.47.47 0 0 1 .362.141c.09.091.136.21.136.357a.499.499 0 0 1-.136.36.478.478 0 0 1-.362.138.495.495 0 0 1-.366-.137Zm3.37-5.59c-.404.513-.606 1.225-.606 2.133 0 .905.202 1.614.605 2.129.404.51.889.766 1.456.766.56 0 1.04-.257 1.44-.771.4-.518.6-1.227.6-2.129 0-.908-.201-1.618-.605-2.129-.404-.514-.885-.771-1.445-.771s-1.042.257-1.446.771Zm3.417-.48c.554.658.83 1.527.83 2.608 0 1.08-.275 1.951-.825 2.612-.55.658-1.206.987-1.968.987-.768 0-1.429-.33-1.982-.987-.55-.66-.825-1.531-.825-2.612 0-1.08.276-1.95.83-2.607.553-.661 1.21-.992 1.968-.992.761 0 1.419.33 1.972.992Zm3.38.48c-.404.513-.606 1.225-.606 2.133 0 .905.202 1.614.605 2.129.404.51.889.766 1.455.766.56 0 1.04-.257 1.44-.771.401-.518.601-1.227.601-2.129 0-.908-.201-1.618-.605-2.129-.404-.514-.885-.771-1.445-.771s-1.042.257-1.446.771Zm3.417-.48c.554.658.83 1.527.83 2.608 0 1.08-.275 1.951-.825 2.612-.55.658-1.206.987-1.968.987-.768 0-1.429-.33-1.982-.987-.55-.66-.825-1.531-.825-2.612 0-1.08.276-1.95.83-2.607.553-.661 1.21-.992 1.968-.992.761 0 1.419.33 1.972.992ZM108.606 4.998h.552V12h-.752V6.4h-1.299v-.45c.228-.006.433-.044.616-.112a1.62 1.62 0 0 0 .434-.24c.108-.09.196-.182.264-.273.072-.091.12-.166.146-.224l.039-.103Zm4.698 2.5c.674 0 1.233.221 1.679.664.446.44.669.985.669 1.636 0 .68-.219 1.234-.659 1.66-.439.426-1.019.64-1.738.64a3.187 3.187 0 0 1-1.489-.367c-.17-.1-.319-.203-.45-.307a1.527 1.527 0 0 1-.273-.264l-.088-.112.498-.498c.013.02.036.05.068.093.036.039.11.107.22.205.114.094.235.18.362.258.126.075.293.144.498.206a2.4 2.4 0 0 0 .654.087c.501 0 .902-.146 1.201-.439.3-.293.449-.68.449-1.162 0-.472-.149-.856-.449-1.152-.296-.297-.68-.445-1.152-.445-.313 0-.599.064-.86.19-.26.128-.441.25-.542.367l-.151.19h-.547l.249-3.95h3.75v.703h-3.1l-.152 2.197.166-.107c.072-.049.223-.109.454-.18.235-.076.479-.113.733-.113Zm3.686 4.463a.509.509 0 0 1-.132-.361c0-.147.044-.266.132-.357a.485.485 0 0 1 .366-.141c.153 0 .274.047.362.141.091.091.136.21.136.357a.499.499 0 0 1-.136.36.48.48 0 0 1-.362.138.494.494 0 0 1-.366-.137Zm3.369-5.59c-.403.513-.605 1.225-.605 2.133 0 .905.202 1.614.605 2.129.404.51.889.766 1.455.766.56 0 1.04-.257 1.441-.771.4-.518.6-1.227.6-2.129 0-.908-.201-1.618-.605-2.129-.404-.514-.885-.771-1.445-.771s-1.042.257-1.446.771Zm3.418-.48c.554.658.83 1.527.83 2.608 0 1.08-.275 1.951-.825 2.612-.55.658-1.206.987-1.968.987-.768 0-1.429-.33-1.982-.987-.55-.66-.825-1.531-.825-2.612 0-1.08.277-1.95.83-2.607.553-.661 1.209-.992 1.968-.992.761 0 1.419.33 1.972.992Zm3.379.48c-.403.513-.605 1.225-.605 2.133 0 .905.202 1.614.605 2.129.404.51.889.766 1.455.766.56 0 1.04-.257 1.441-.771.4-.518.6-1.227.6-2.129 0-.908-.201-1.618-.605-2.129-.404-.514-.886-.771-1.445-.771-.56 0-1.042.257-1.446.771Zm3.418-.48c.554.658.83 1.527.83 2.608 0 1.08-.275 1.951-.825 2.612-.55.658-1.206.987-1.968.987-.768 0-1.429-.33-1.982-.987-.55-.66-.825-1.531-.825-2.612 0-1.08.276-1.95.83-2.607.553-.661 1.209-.992 1.968-.992.761 0 1.419.33 1.972.992ZM144.812 4.998h.551V12h-.752V6.4h-1.299v-.45c.228-.006.433-.044.616-.112a1.62 1.62 0 0 0 .434-.24c.108-.09.196-.182.264-.273.072-.091.12-.166.146-.224l.04-.103Zm4.594 2.5c.674 0 1.234.221 1.68.664.449.44.674.986.674 1.64 0 .652-.228 1.197-.684 1.636-.452.44-1.025.66-1.719.66-.693 0-1.266-.22-1.718-.66-.453-.439-.679-.986-.679-1.64 0-.254.041-.505.122-.752.085-.25.166-.44.244-.567l.132-.18 2.1-3.3h.752L148.659 7.6c.192-.069.441-.103.747-.103Zm1.153 3.462c.299-.293.449-.679.449-1.157 0-.482-.15-.87-.449-1.162-.3-.293-.7-.44-1.202-.44-.498 0-.898.147-1.201.44-.299.293-.449.68-.449 1.162 0 .478.15.864.449 1.157.303.293.703.44 1.201.44.502 0 .902-.147 1.202-.44Zm2.431 1a.509.509 0 0 1-.132-.36c0-.147.044-.266.132-.357a.485.485 0 0 1 .366-.141c.153 0 .274.047.362.141.091.091.136.21.136.357a.499.499 0 0 1-.136.36.48.48 0 0 1-.362.138.494.494 0 0 1-.366-.137Zm3.369-5.59c-.403.514-.605 1.226-.605 2.134 0 .905.202 1.614.605 2.129.404.51.889.766 1.455.766.56 0 1.04-.257 1.441-.771.4-.518.6-1.227.6-2.129 0-.908-.201-1.618-.605-2.129-.404-.514-.885-.771-1.445-.771s-1.042.257-1.446.771Zm3.418-.478c.554.657.83 1.526.83 2.607 0 1.08-.275 1.951-.825 2.612-.55.658-1.206.987-1.968.987-.768 0-1.429-.33-1.982-.987-.55-.66-.825-1.531-.825-2.612 0-1.08.277-1.95.83-2.607.553-.661 1.209-.992 1.968-.992.761 0 1.419.33 1.972.992Zm3.379.478c-.403.514-.605 1.226-.605 2.134 0 .905.202 1.614.605 2.129.404.51.889.766 1.455.766.56 0 1.04-.257 1.441-.771.4-.518.6-1.227.6-2.129 0-.908-.201-1.618-.605-2.129-.404-.514-.886-.771-1.445-.771-.56 0-1.042.257-1.446.771Zm3.418-.478c.554.657.83 1.526.83 2.607 0 1.08-.275 1.951-.825 2.612-.55.658-1.206.987-1.968.987-.768 0-1.429-.33-1.982-.987-.55-.66-.825-1.531-.825-2.612 0-1.08.276-1.95.83-2.607.553-.661 1.209-.992 1.968-.992.761 0 1.419.33 1.972.992ZM180.212 4.998h.552V12h-.752V6.4h-1.299v-.45c.228-.006.433-.044.615-.112.182-.072.327-.151.435-.24.107-.09.195-.182.263-.273.072-.091.121-.166.147-.224l.039-.103ZM186.711 12h-4.502a2.845 2.845 0 0 1 .977-2.178c.276-.234.576-.468.898-.703.322-.234.622-.443.898-.625.277-.182.508-.408.694-.679a1.48 1.48 0 0 0 .283-.864c0-.407-.133-.734-.4-.981-.267-.248-.634-.371-1.099-.371-.234 0-.448.042-.64.127a1.23 1.23 0 0 0-.439.297 2.346 2.346 0 0 0-.254.352 1.651 1.651 0 0 0-.137.303l-.029.122-.654-.298c.006-.046.021-.104.044-.176a3.04 3.04 0 0 1 .195-.38c.107-.183.233-.344.376-.484s.351-.269.625-.386c.273-.117.578-.176.913-.176.667 0 1.209.196 1.626.586.417.391.625.88.625 1.465 0 .339-.078.653-.234.943-.153.29-.347.533-.581.732-.232.195-.494.4-.787.615-.293.212-.571.409-.835.591-.263.18-.509.397-.737.654a2.351 2.351 0 0 0-.478.816h3.652V12Zm1.279-.04a.509.509 0 0 1-.132-.36c0-.147.044-.266.132-.357a.485.485 0 0 1 .366-.141c.153 0 .274.047.362.141.091.091.136.21.136.357a.499.499 0 0 1-.136.36.48.48 0 0 1-.362.138.494.494 0 0 1-.366-.137Zm3.369-5.59c-.403.514-.605 1.226-.605 2.134 0 .905.202 1.614.605 2.129.404.51.889.766 1.455.766.56 0 1.04-.257 1.441-.771.4-.518.6-1.227.6-2.129 0-.908-.201-1.618-.605-2.129-.404-.514-.885-.771-1.445-.771s-1.042.257-1.446.771Zm3.418-.478c.554.657.83 1.526.83 2.607 0 1.08-.275 1.951-.825 2.612-.55.658-1.206.987-1.968.987-.768 0-1.429-.33-1.982-.987-.55-.66-.825-1.531-.825-2.612 0-1.08.277-1.95.83-2.607.553-.661 1.209-.992 1.968-.992.761 0 1.419.33 1.972.992Zm3.379.478c-.403.514-.605 1.226-.605 2.134 0 .905.202 1.614.605 2.129.404.51.889.766 1.455.766.56 0 1.04-.257 1.441-.771.4-.518.6-1.227.6-2.129 0-.908-.201-1.618-.605-2.129-.404-.514-.886-.771-1.445-.771-.56 0-1.042.257-1.446.771Zm3.418-.478c.554.657.83 1.526.83 2.607 0 1.08-.275 1.951-.825 2.612-.55.658-1.206.987-1.968.987-.768 0-1.429-.33-1.982-.987-.55-.66-.825-1.531-.825-2.612 0-1.08.276-1.95.83-2.607.553-.661 1.209-.992 1.968-.992.761 0 1.419.33 1.972.992ZM215.114 4.998h.552V12h-.752V6.4h-1.299v-.45c.228-.006.433-.044.615-.112.183-.072.328-.151.435-.24a1.762 1.762 0 0 0 .41-.497l.039-.103Zm5.298 3.3a.893.893 0 0 1 .137.045 1.9 1.9 0 0 1 .317.16c.15.086.282.186.396.304.114.117.216.286.307.507.095.219.142.464.142.738 0 .553-.217 1.033-.649 1.44-.433.404-1 .606-1.7.606a3.32 3.32 0 0 1-.854-.108 3.092 3.092 0 0 1-.669-.259 4.066 4.066 0 0 1-.459-.307 1.822 1.822 0 0 1-.288-.264l-.083-.112.503-.498c.013.02.036.05.068.093a2.753 2.753 0 0 0 .591.464 2.506 2.506 0 0 0 1.191.292c.508 0 .91-.128 1.206-.385a1.22 1.22 0 0 0 .445-.962c0-.375-.153-.694-.459-.957-.303-.264-.7-.396-1.192-.396h-.703v-.698h.703c.42 0 .749-.112.987-.337.241-.228.361-.532.361-.913a1.06 1.06 0 0 0-.366-.825c-.241-.218-.568-.327-.982-.327-.192 0-.381.027-.566.083a1.586 1.586 0 0 0-.454.2 2.634 2.634 0 0 0-.318.24 1.57 1.57 0 0 0-.195.2l-.068.077-.498-.551a1.91 1.91 0 0 1 .083-.103c.036-.042.119-.117.249-.224.13-.108.27-.202.42-.284.149-.084.346-.16.59-.23.245-.07.497-.107.757-.107.612 0 1.115.181 1.509.542.394.358.591.795.591 1.309 0 .228-.038.435-.112.62a1.36 1.36 0 0 1-.264.444 2.66 2.66 0 0 1-.308.284 1.292 1.292 0 0 1-.258.16l-.108.04Zm2.578 3.663a.509.509 0 0 1-.132-.361c0-.147.044-.266.132-.357a.485.485 0 0 1 .366-.141c.153 0 .274.047.362.141.091.091.136.21.136.357a.499.499 0 0 1-.136.36.48.48 0 0 1-.362.138.494.494 0 0 1-.366-.137Zm3.369-5.59c-.403.513-.605 1.225-.605 2.133 0 .905.202 1.614.605 2.129.404.51.889.766 1.455.766.56 0 1.04-.257 1.441-.771.4-.518.6-1.227.6-2.129 0-.908-.201-1.618-.605-2.129-.404-.514-.885-.771-1.445-.771s-1.042.257-1.446.771Zm3.418-.48c.554.658.83 1.527.83 2.608 0 1.08-.275 1.951-.825 2.612-.55.658-1.206.987-1.968.987-.768 0-1.429-.33-1.982-.987-.55-.66-.825-1.531-.825-2.612 0-1.08.277-1.95.83-2.607.553-.661 1.209-.992 1.968-.992.761 0 1.419.33 1.972.992Zm3.379.48c-.403.513-.605 1.225-.605 2.133 0 .905.202 1.614.605 2.129.404.51.889.766 1.455.766.56 0 1.04-.257 1.441-.771.4-.518.6-1.227.6-2.129 0-.908-.201-1.618-.605-2.129-.404-.514-.886-.771-1.445-.771-.56 0-1.042.257-1.446.771Zm3.418-.48c.554.658.83 1.527.83 2.608 0 1.08-.275 1.951-.825 2.612-.55.658-1.206.987-1.968.987-.768 0-1.429-.33-1.982-.987-.55-.66-.825-1.531-.825-2.612 0-1.08.276-1.95.83-2.607.553-.661 1.209-.992 1.968-.992.761 0 1.419.33 1.972.992ZM250.86 4.998h.552V12h-.752V6.4h-1.299v-.45c.228-.006.433-.044.616-.112a1.62 1.62 0 0 0 .434-.24 1.717 1.717 0 0 0 .41-.497l.039-.103Zm6.197 4.8h.898v.703h-.898V12h-.752v-1.499h-3.55v-.85l3.354-4.653h.948v4.8Zm-.752 0v-3.95l-2.847 3.95h2.847Zm2.685 2.163a.509.509 0 0 1-.132-.361c0-.147.044-.266.132-.357a.485.485 0 0 1 .366-.141c.153 0 .274.047.362.141.091.091.136.21.136.357a.499.499 0 0 1-.136.36.48.48 0 0 1-.362.138.494.494 0 0 1-.366-.137Zm3.369-5.59c-.403.513-.605 1.225-.605 2.133 0 .905.202 1.614.605 2.129.404.51.889.766 1.455.766.56 0 1.04-.257 1.441-.771.4-.518.6-1.227.6-2.129 0-.908-.201-1.618-.605-2.129-.404-.514-.885-.771-1.445-.771s-1.042.257-1.446.771Zm3.418-.48c.554.658.83 1.527.83 2.608 0 1.08-.275 1.951-.825 2.612-.55.658-1.206.987-1.968.987-.768 0-1.429-.33-1.982-.987-.55-.66-.825-1.531-.825-2.612 0-1.08.277-1.95.83-2.607.553-.661 1.209-.992 1.968-.992.761 0 1.419.33 1.972.992Zm3.379.48c-.403.513-.605 1.225-.605 2.133 0 .905.202 1.614.605 2.129.404.51.889.766 1.455.766.56 0 1.04-.257 1.441-.771.4-.518.6-1.227.6-2.129 0-.908-.201-1.618-.605-2.129-.404-.514-.886-.771-1.445-.771-.56 0-1.042.257-1.446.771Zm3.418-.48c.554.658.83 1.527.83 2.608 0 1.08-.275 1.951-.825 2.612-.55.658-1.206.987-1.968.987-.768 0-1.429-.33-1.982-.987-.55-.66-.825-1.531-.825-2.612 0-1.08.276-1.95.83-2.607.553-.661 1.209-.992 1.968-.992.761 0 1.419.33 1.972.992ZM286.606 4.998h.552V12h-.752V6.4h-1.299v-.45c.228-.006.433-.044.616-.112a1.62 1.62 0 0 0 .434-.24c.108-.09.196-.182.264-.273.072-.091.12-.166.146-.224l.039-.103Zm4.698 2.5c.674 0 1.233.221 1.679.664.446.44.669.985.669 1.636 0 .68-.219 1.234-.659 1.66-.439.426-1.019.64-1.738.64a3.187 3.187 0 0 1-1.489-.367c-.17-.1-.319-.203-.45-.307a1.527 1.527 0 0 1-.273-.264l-.088-.112.498-.498c.013.02.036.05.068.093.036.039.11.107.22.205.114.094.235.18.362.258.126.075.293.144.498.206a2.4 2.4 0 0 0 .654.087c.501 0 .902-.146 1.201-.439.3-.293.449-.68.449-1.162 0-.472-.149-.856-.449-1.152-.296-.297-.68-.445-1.152-.445-.313 0-.599.064-.86.19-.26.128-.441.25-.542.367l-.151.19h-.547l.249-3.95h3.75v.703h-3.1l-.152 2.197.166-.107c.072-.049.223-.109.454-.18.235-.076.479-.113.733-.113Zm3.686 4.463a.509.509 0 0 1-.132-.361c0-.147.044-.266.132-.357a.485.485 0 0 1 .366-.141c.153 0 .274.047.362.141.091.091.136.21.136.357a.499.499 0 0 1-.136.36.48.48 0 0 1-.362.138.494.494 0 0 1-.366-.137Zm3.369-5.59c-.403.513-.605 1.225-.605 2.133 0 .905.202 1.614.605 2.129.404.51.889.766 1.455.766.56 0 1.04-.257 1.441-.771.4-.518.6-1.227.6-2.129 0-.908-.201-1.618-.605-2.129-.404-.514-.885-.771-1.445-.771s-1.042.257-1.446.771Zm3.418-.48c.554.658.83 1.527.83 2.608 0 1.08-.275 1.951-.825 2.612-.55.658-1.206.987-1.968.987-.768 0-1.429-.33-1.982-.987-.55-.66-.825-1.531-.825-2.612 0-1.08.277-1.95.83-2.607.553-.661 1.209-.992 1.968-.992.761 0 1.419.33 1.972.992Zm3.379.48c-.403.513-.605 1.225-.605 2.133 0 .905.202 1.614.605 2.129.404.51.889.766 1.455.766.56 0 1.04-.257 1.441-.771.4-.518.6-1.227.6-2.129 0-.908-.201-1.618-.605-2.129-.404-.514-.886-.771-1.445-.771-.56 0-1.042.257-1.446.771Zm3.418-.48c.554.658.83 1.527.83 2.608 0 1.08-.275 1.951-.825 2.612-.55.658-1.206.987-1.968.987-.768 0-1.429-.33-1.982-.987-.55-.66-.825-1.531-.825-2.612 0-1.08.276-1.95.83-2.607.553-.661 1.209-.992 1.968-.992.761 0 1.419.33 1.972.992Z"/></svg>